<?xml version="1.0" encoding="UTF-8" standalone="no"?>
<svg
   xmlns:dc="http://purl.org/dc/elements/1.1/"
   xmlns:cc="http://creativecommons.org/ns#"
   xmlns:rdf="http://www.w3.org/1999/02/22-rdf-syntax-ns#"
   xmlns:svg="http://www.w3.org/2000/svg"
   xmlns="http://www.w3.org/2000/svg"
   xmlns:sodipodi="http://sodipodi.sourceforge.net/DTD/sodipodi-0.dtd"
   xmlns:inkscape="http://www.inkscape.org/namespaces/inkscape"
   version="1.1"
   id="svg2"
   xml:space="preserve"
   width="462.88"
   height="361.35999"
   viewBox="0 0 462.88 361.35999"
   sodipodi:docname="Charcoal Bird.eps"><metadata
     id="metadata8"><rdf:RDF><cc:Work
         rdf:about=""><dc:format>image/svg+xml</dc:format><dc:type
           rdf:resource="http://purl.org/dc/dcmitype/StillImage" /></cc:Work></rdf:RDF></metadata><defs
     id="defs6" /><sodipodi:namedview
     pagecolor="#ffffff"
     bordercolor="#666666"
     borderopacity="1"
     objecttolerance="10"
     gridtolerance="10"
     guidetolerance="10"
     inkscape:pageopacity="0"
     inkscape:pageshadow="2"
     inkscape:window-width="640"
     inkscape:window-height="480"
     id="namedview4" /><g
     id="g10"
     inkscape:groupmode="layer"
     inkscape:label="ink_ext_XXXXXX"
     transform="matrix(1.3333333,0,0,-1.3333333,0,361.36)"><g
       id="g12"
       transform="scale(0.1)"><path
         d="m 1376.45,1712.84 c 57.72,-38.44 96.89,-81.43 124.41,-133.73 29.38,-55.81 44.82,-113.61 47.4,-178.59 2.97,-74.46 -3.5,-156.38 -24.62,-233.25 2.94,3.97 17.44,19.57 28.91,37.78 50.44,79.99 156.14,281.53 78.52,465.66 0,0 -73.55,163.15 -386.65,304.5 0,0 -347.065,148.86 -511.354,285.93 0,0 -280.046,239.58 -300.097,448.15 l -0.039,-0.37 C 308.754,2134.7 996.484,1977.1 1376.45,1712.84"
         style="fill:#10141c;fill-opacity:1;fill-rule:nonzero;stroke:none"
         id="path14" /><path
         d="m 1376.45,1712.84 c 57.72,-38.44 96.89,-81.43 124.41,-133.73 29.38,-55.81 44.82,-113.61 47.4,-178.59 2.97,-74.46 -3.5,-156.38 -24.62,-233.25 2.94,3.97 17.44,19.57 28.91,37.78 50.44,79.99 156.14,281.53 78.52,465.66 0,0 -73.55,163.15 -386.65,304.5 0,0 -347.065,148.86 -511.354,285.93 0,0 -280.046,239.58 -300.097,448.15 l -0.039,-0.37 C 308.754,2134.7 996.484,1977.1 1376.45,1712.84 Z"
         style="fill:none;stroke:#10141c;stroke-width:10;stroke-linecap:butt;stroke-linejoin:miter;stroke-miterlimit:10;stroke-dasharray:none;stroke-opacity:1"
         id="path16" /><path
         d="m 2536.89,1714.85 c -3.47,2.32 -6.57,3.77 -9.03,4.76 -8.75,3.52 -18.49,5.64 -33.6,5.64 -10.99,0 -23.86,-1.18 -39.06,-3.72 0,0 -14.25,-2.36 -39.83,-2.36 -31.78,0 -81.22,3.54 -143.04,19.83 0,0 -44.07,9.43 -105.1,9.43 -91.23,0 -220.17,-21.32 -296.93,-127.71 0,0 -93.46,-117.52 -174.97,-314.27 0,0 -149.27,-312.571 -350.38,-439.63 0,0 -211.38,-163.039 -498.739,-203.91 0,0 -75.926,-14.07 -178.465,-14.07 -79.512,0 -175.137,8.59 -263.176,38.742 0,0 -141.328,33.949 -268.316,101.707 -42.504,22.68 -91.3517,48.91 -124.8087,79.152 0,0 -6.23827,-29.382 -6.4453,-71.871 v -3.949 c 0.20703,-49.031 8.7617,-114.492 43.5664,-172.859 0,0 5.0391,-11.184 12.9766,-24.883 65.773,-57.367 147.969,-77.449 229.805,-77.449 191.132,0 413.828,106.73 599.054,117.789 265.888,0 561.178,34.453 768.298,181.91 154.87,110.359 258.47,297.001 343.74,496.081 86.01,215.29 293.33,349.34 534.45,401.64"
         style="fill:#10141c;fill-opacity:1;fill-rule:nonzero;stroke:none"
         id="path18" /><path
         d="m 2536.89,1714.85 c -3.47,2.32 -6.57,3.77 -9.03,4.76 -8.75,3.52 -18.49,5.64 -33.6,5.64 -10.99,0 -23.86,-1.18 -39.06,-3.72 0,0 -14.25,-2.36 -39.83,-2.36 -31.78,0 -81.22,3.54 -143.04,19.83 0,0 -44.07,9.43 -105.1,9.43 -91.23,0 -220.17,-21.32 -296.93,-127.71 0,0 -93.46,-117.52 -174.97,-314.27 0,0 -149.27,-312.571 -350.38,-439.63 0,0 -211.38,-163.039 -498.739,-203.91 0,0 -75.926,-14.07 -178.465,-14.07 -79.512,0 -175.137,8.59 -263.176,38.742 0,0 -141.328,33.949 -268.316,101.707 -42.504,22.68 -91.3517,48.91 -124.8087,79.152 0,0 -6.23827,-29.382 -6.4453,-71.871 v -3.949 c 0.20703,-49.031 8.7617,-114.492 43.5664,-172.859 0,0 5.0391,-11.184 12.9766,-24.883 65.773,-57.367 147.969,-77.449 229.805,-77.449 191.132,0 413.828,106.73 599.054,117.789 265.888,0 561.178,34.453 768.298,181.91 154.87,110.359 258.47,297.001 343.74,496.081 86.01,215.29 293.33,349.34 534.45,401.64 z"
         style="fill:none;stroke:#10141c;stroke-width:10;stroke-linecap:butt;stroke-linejoin:miter;stroke-miterlimit:10;stroke-dasharray:none;stroke-opacity:1"
         id="path20" /><path
         d="m 954.387,394.23 c 0,0 -87.942,-233.73 -178.36,-292.789 0,0 -22.656,-18.8512 -61.875,-32.9918 -23.554,-8.4804 -59.289,-16.9101 -93.468,-16.9101 -5.047,0 -35.438,0.6093 -40.704,0.9297 34.043,-10.0899 89.407,-20.6875 121.309,-24.0079 1.457,-0.1406 9.649,0.1211 10.996,0 C 1036.06,-1.10156 1068.61,342.02 1155,558.57 c 0.85,0.821 1.74,1.61 2.67,2.352 10.47,8.398 36.67,7.949 54.29,9.207 -0.97,0 -6.21,1.883 -7.33,2.082 -5.75,1.027 -7.27,1.187 -15.24,1.75 -8.66,0.598 -18.23,-1.551 -25.24,-2.691 -56.27,-9.149 -145.92,-45.54 -209.763,-177.04"
         style="fill:#10141c;fill-opacity:1;fill-rule:nonzero;stroke:none"
         id="path22" /><path
         d="m 954.387,394.23 c 0,0 -87.942,-233.73 -178.36,-292.789 0,0 -22.656,-18.8512 -61.875,-32.9918 -23.554,-8.4804 -59.289,-16.9101 -93.468,-16.9101 -5.047,0 -35.438,0.6093 -40.704,0.9297 34.043,-10.0899 89.407,-20.6875 121.309,-24.0079 1.457,-0.1406 9.649,0.1211 10.996,0 C 1036.06,-1.10156 1068.61,342.02 1155,558.57 c 0.85,0.821 1.74,1.61 2.67,2.352 10.47,8.398 36.67,7.949 54.29,9.207 -0.97,0 -6.21,1.883 -7.33,2.082 -5.75,1.027 -7.27,1.187 -15.24,1.75 -8.66,0.598 -18.23,-1.551 -25.24,-2.691 -56.27,-9.149 -145.92,-45.54 -209.763,-177.04 z"
         style="fill:none;stroke:#10141c;stroke-width:10;stroke-linecap:butt;stroke-linejoin:miter;stroke-miterlimit:10;stroke-dasharray:none;stroke-opacity:1"
         id="path24" /><path
         d="m 2631.59,930.238 c -52.14,0 -104.54,4.082 -155.55,14.551 -34.35,7.051 -67.97,17.172 -102.43,23.742 -29.75,5.59 -59.88,9.5 -90.14,11.52 -13.95,0.949 -28.01,1.359 -42.05,1.359 -58.38,0 -91.93,-8.359 -91.93,-8.359 -100.24,-26.129 -176.57,-69.41 -219.45,-97.781 -9.94,-6.59 -25.52,-17.391 -31.75,-21.969 13.54,4.097 34.67,11.808 48.42,13.57 33.43,4.27 67.16,3.02 99.53,3.02 83.7,0 162.64,-38.672 245.32,-57.219 82.43,-18.742 167.03,-26.32 250.62,-26.32 46.91,0 98.99,8.089 146.46,22.937 209.36,80.621 401.83,163.109 565.75,334.561 l 11.3,13.6 c -121.79,-93.27 -368.54,-176.04 -368.54,-176.04 -90.23,-40.07 -186.2,-51.172 -265.56,-51.172"
         style="fill:#10141c;fill-opacity:1;fill-rule:nonzero;stroke:none"
         id="path26" /><path
         d="m 2631.59,930.238 c -52.14,0 -104.54,4.082 -155.55,14.551 -34.35,7.051 -67.97,17.172 -102.43,23.742 -29.75,5.59 -59.88,9.5 -90.14,11.52 -13.95,0.949 -28.01,1.359 -42.05,1.359 -58.38,0 -91.93,-8.359 -91.93,-8.359 -100.24,-26.129 -176.57,-69.41 -219.45,-97.781 -9.94,-6.59 -25.52,-17.391 -31.75,-21.969 13.54,4.097 34.67,11.808 48.42,13.57 33.43,4.27 67.16,3.02 99.53,3.02 83.7,0 162.64,-38.672 245.32,-57.219 82.43,-18.742 167.03,-26.32 250.62,-26.32 46.91,0 98.99,8.089 146.46,22.937 209.36,80.621 401.83,163.109 565.75,334.561 l 11.3,13.6 c -121.79,-93.27 -368.54,-176.04 -368.54,-176.04 -90.23,-40.07 -186.2,-51.172 -265.56,-51.172 z"
         style="fill:none;stroke:#10141c;stroke-width:10;stroke-linecap:butt;stroke-linejoin:miter;stroke-miterlimit:10;stroke-dasharray:none;stroke-opacity:1"
         id="path28" /><path
         d="m 3221.76,1522.08 c -93.83,-70.2 -207.44,-108.44 -321.8,-128.68 -159.02,-28.35 -330.43,21.73 -485.53,-31.04 -231.88,-77 -383.34,-327.88 -383.34,-327.88 5.02,3.2 10.12,6.29 15.15,9.45 192.98,231.35 567.16,99.75 835.9,178.72 240.51,60.19 467.51,229.12 557.61,469.97 -74.06,-76.87 -217.99,-170.54 -217.99,-170.54"
         style="fill:#10141c;fill-opacity:1;fill-rule:nonzero;stroke:none"
         id="path30" /><path
         d="m 3221.76,1522.08 c -93.83,-70.2 -207.44,-108.44 -321.8,-128.68 -159.02,-28.35 -330.43,21.73 -485.53,-31.04 -231.88,-77 -383.34,-327.88 -383.34,-327.88 5.02,3.2 10.12,6.29 15.15,9.45 192.98,231.35 567.16,99.75 835.9,178.72 240.51,60.19 467.51,229.12 557.61,469.97 -74.06,-76.87 -217.99,-170.54 -217.99,-170.54 z"
         style="fill:none;stroke:#10141c;stroke-width:10;stroke-linecap:butt;stroke-linejoin:miter;stroke-miterlimit:10;stroke-dasharray:none;stroke-opacity:1"
         id="path32" /><path
         d="m 960.988,575.051 c -135.949,0 -319.66,-138.102 -319.66,-138.102 -117.949,-77.051 -218.855,-106.98 -218.855,-106.98 -31.719,-8.27 -61.055,-11.617 -88.055,-11.617 -85,0 -143.539,33.449 -166.359,49.089 68.164,-85.16 157.586,-160.179 248.328,-160.179 41.386,0 83.039,11.25 123.515,36.476 156.914,78.434 284.161,273.653 464.538,321.223 -13.327,8.051 -26.178,9.348 -32.174,9.73 -3.711,0.239 -7.469,0.36 -11.278,0.36"
         style="fill:#10141c;fill-opacity:1;fill-rule:nonzero;stroke:none"
         id="path34" /><path
         d="m 960.988,575.051 c -135.949,0 -319.66,-138.102 -319.66,-138.102 -117.949,-77.051 -218.855,-106.98 -218.855,-106.98 -31.719,-8.27 -61.055,-11.617 -88.055,-11.617 -85,0 -143.539,33.449 -166.359,49.089 68.164,-85.16 157.586,-160.179 248.328,-160.179 41.386,0 83.039,11.25 123.515,36.476 156.914,78.434 284.161,273.653 464.538,321.223 -13.327,8.051 -26.178,9.348 -32.174,9.73 -3.711,0.239 -7.469,0.36 -11.278,0.36 z"
         style="fill:none;stroke:#10141c;stroke-width:10;stroke-linecap:butt;stroke-linejoin:miter;stroke-miterlimit:10;stroke-dasharray:none;stroke-opacity:1"
         id="path36" /><path
         d="m 1092.75,1179.26 c 0,0 -207.027,16.01 -317.516,62.63 0,0 -218.66,75.79 -270.632,116.51 0,0 15.964,-20.71 24.003,-28.57 70.86,-69.33 152.918,-150.01 244.598,-184.45 68.86,-43.83 163.664,-77.95 255.997,-82.48 88.78,-4.36 175.28,11.78 234.05,-30.54 24.14,-17.4 34.36,-26.19 47.41,-49.551 4.55,-8.149 9.74,-23.129 12.65,-36.719 2.88,2.398 4.67,6.16 7.16,11.449 2.96,6.27 4.46,14.539 5.13,19.91 5.7,46.721 -0.63,130.761 -102.7,172.111 0,0 -37.11,16.36 -140.15,29.7"
         style="fill:#10141c;fill-opacity:1;fill-rule:nonzero;stroke:none"
         id="path38" /><path
         d="m 1092.75,1179.26 c 0,0 -207.027,16.01 -317.516,62.63 0,0 -218.66,75.79 -270.632,116.51 0,0 15.964,-20.71 24.003,-28.57 70.86,-69.33 152.918,-150.01 244.598,-184.45 68.86,-43.83 163.664,-77.95 255.997,-82.48 88.78,-4.36 175.28,11.78 234.05,-30.54 24.14,-17.4 34.36,-26.19 47.41,-49.551 4.55,-8.149 9.74,-23.129 12.65,-36.719 2.88,2.398 4.67,6.16 7.16,11.449 2.96,6.27 4.46,14.539 5.13,19.91 5.7,46.721 -0.63,130.761 -102.7,172.111 0,0 -37.11,16.36 -140.15,29.7 z"
         style="fill:none;stroke:#10141c;stroke-width:10;stroke-linecap:butt;stroke-linejoin:miter;stroke-miterlimit:10;stroke-dasharray:none;stroke-opacity:1"
         id="path40" /><path
         d="m 403.242,1736.63 c 232.375,-215.96 571.867,-258.36 870.818,-407.69 107.64,-46.19 138.79,-169.8 128.3,-294.44 13.68,31.18 67.97,160.43 22.02,291.86 0,0 -23.27,108.88 -294.72,212.04 0,0 -379.394,131.34 -504.433,213.17 0,0 -259.493,134.13 -341.164,345.85 0,0 -9.454,-32.68 -7.235,-81.08 18.027,-106.82 50.156,-216.23 126.414,-279.71"
         style="fill:#10141c;fill-opacity:1;fill-rule:nonzero;stroke:none"
         id="path42" /><path
         d="m 403.242,1736.63 c 232.375,-215.96 571.867,-258.36 870.818,-407.69 107.64,-46.19 138.79,-169.8 128.3,-294.44 13.68,31.18 67.97,160.43 22.02,291.86 0,0 -23.27,108.88 -294.72,212.04 0,0 -379.394,131.34 -504.433,213.17 0,0 -259.493,134.13 -341.164,345.85 0,0 -9.454,-32.68 -7.235,-81.08 18.027,-106.82 50.156,-216.23 126.414,-279.71 z"
         style="fill:none;stroke:#10141c;stroke-width:10;stroke-linecap:butt;stroke-linejoin:miter;stroke-miterlimit:10;stroke-dasharray:none;stroke-opacity:1"
         id="path44" /><path
         d="M 2532.08,1717.17 C 2290.6,1664.79 2067.76,1536.16 1981.56,1320.54 1897.28,1124.08 1806.36,953.051 1654.27,842.891 1476.25,714.031 1204.67,660.719 988.898,644.172 917.09,638.66 845.156,638.551 773.879,627.16 708.086,616.648 643.352,600.371 578.555,585.09 513.711,569.789 448.586,554.691 382.434,546.172 c -35.313,-4.543 -70.93,-7.281 -106.555,-6.551 -78.262,1.59 -179.422,54.481 -242.6056,109.559 7.1368,-12.239 15.4102,-39.289 33.6211,-62.91 40.8005,-52.899 111.3395,-112.34 187.9685,-118.2 0,0 108.828,-19.711 278.477,52.352 0,0 284.504,103.109 457.707,106.937 0,0 379.843,-3.519 541.263,53.993 121.96,43.546 222.33,97.968 326.26,228.546 103.98,130.622 130.96,239.972 164.44,309.932 0,0 100.89,210.04 224.06,309.57 0,0 156.95,134.7 299.53,177.97 0,0 -3.62,5.21 -14.52,9.8"
         style="fill:#10141c;fill-opacity:1;fill-rule:nonzero;stroke:none"
         id="path46" /><path
         d="M 2532.08,1717.17 C 2290.6,1664.79 2067.76,1536.16 1981.56,1320.54 1897.28,1124.08 1806.36,953.051 1654.27,842.891 1476.25,714.031 1204.67,660.719 988.898,644.172 917.09,638.66 845.156,638.551 773.879,627.16 708.086,616.648 643.352,600.371 578.555,585.09 513.711,569.789 448.586,554.691 382.434,546.172 c -35.313,-4.543 -70.93,-7.281 -106.555,-6.551 -78.262,1.59 -179.422,54.481 -242.6056,109.559 7.1368,-12.239 15.4102,-39.289 33.6211,-62.91 40.8005,-52.899 111.3395,-112.34 187.9685,-118.2 0,0 108.828,-19.711 278.477,52.352 0,0 284.504,103.109 457.707,106.937 0,0 379.843,-3.519 541.263,53.993 121.96,43.546 222.33,97.968 326.26,228.546 103.98,130.622 130.96,239.972 164.44,309.932 0,0 100.89,210.04 224.06,309.57 0,0 156.95,134.7 299.53,177.97 0,0 -3.62,5.21 -14.52,9.8"
         style="fill:none;stroke:#10141c;stroke-width:10;stroke-linecap:butt;stroke-linejoin:miter;stroke-miterlimit:10;stroke-dasharray:none;stroke-opacity:1"
         id="path48" /><path
         d="m 1382.79,1719.79 c -380.73,264.67 -1058.911,429.89 -949.821,989.5 -1.715,-8.77 -96.992,-176.25 2.699,-407.57 0,0 72.527,-204.37 325.293,-359.58 0,0 210.008,-119.93 363.809,-179.55 0,0 330.24,-117.15 388.09,-332.99 2.7,-10.08 4.81,-20.37 6.26,-30.88 1.54,-11.11 2.45,-17.83 3.54,-34.17 0,0 1.39,-24.52 3.49,-57.33 2.94,-45.76 4.91,-107.37 -2.51,-139.95 l 1.23,1.68 c 2.39,4.42 3.49,8.55 4.94,12.83 1.86,5.56 2.83,11.08 4.17,16.58 6.93,28.53 10.95,56.89 14.9,85.35 23.46,169.21 -11.05,332.74 -166.09,436.08"
         style="fill:#10141c;fill-opacity:1;fill-rule:nonzero;stroke:none"
         id="path50" /><path
         d="m 1382.79,1719.79 c -380.73,264.67 -1058.911,429.89 -949.821,989.5 -1.715,-8.77 -96.992,-176.25 2.699,-407.57 0,0 72.527,-204.37 325.293,-359.58 0,0 210.008,-119.93 363.809,-179.55 0,0 330.24,-117.15 388.09,-332.99 2.7,-10.08 4.81,-20.37 6.26,-30.88 1.54,-11.11 2.45,-17.83 3.54,-34.17 0,0 1.39,-24.52 3.49,-57.33 2.94,-45.76 4.91,-107.37 -2.51,-139.95 l 1.23,1.68 c 2.39,4.42 3.49,8.55 4.94,12.83 1.86,5.56 2.83,11.08 4.17,16.58 6.93,28.53 10.95,56.89 14.9,85.35 23.46,169.21 -11.05,332.74 -166.09,436.08"
         style="fill:none;stroke:#10141c;stroke-width:10;stroke-linecap:butt;stroke-linejoin:miter;stroke-miterlimit:10;stroke-dasharray:none;stroke-opacity:1"
         id="path52" /><path
         d="m 1240.84,1362.49 c -36.8,16.09 -75.58,28.77 -112.57,43.62 -52.75,21.2 -106.11,40.84 -159.469,60.44 -30.528,11.22 -61.055,22.42 -91.485,33.89 -106.125,40.01 -211.281,82.7 -309.003,140.8 -54.454,32.38 -101.727,71.38 -150.215,111.76 -76.379,63.58 -123.352,156.35 -141.27,263.34 4.735,-97.11 31.094,-260.21 146.668,-363.48 0,0 105.793,-99.26 219.008,-145.99 0,0 181.676,-77.7 343.457,-122.58 0,0 299.069,-80.26 375.979,-199.72 0,0 51.08,-80.43 36.98,-157.38 0,0 1.36,2.59 3.44,7.31 2.91,6.58 3.17,14.63 3.55,21.7 0.72,13.38 0.83,26.89 0.92,40.29 0.06,9.22 -0.55,18.43 -0.75,27.65 -0.23,9.75 -0.75,19.53 -1.66,29.26 -1.85,19.63 -5.32,39.09 -11.2,57.93 -19.04,61.06 -63.23,105.43 -118.85,135.05 -10.91,5.8 -22.12,11.12 -33.53,16.11"
         style="fill:#10141c;fill-opacity:1;fill-rule:nonzero;stroke:none"
         id="path54" /><path
         d="m 1240.84,1362.49 c -36.8,16.09 -75.58,28.77 -112.57,43.62 -52.75,21.2 -106.11,40.84 -159.469,60.44 -30.528,11.22 -61.055,22.42 -91.485,33.89 -106.125,40.01 -211.281,82.7 -309.003,140.8 -54.454,32.38 -101.727,71.38 -150.215,111.76 -76.379,63.58 -123.352,156.35 -141.27,263.34 4.735,-97.11 31.094,-260.21 146.668,-363.48 0,0 105.793,-99.26 219.008,-145.99 0,0 181.676,-77.7 343.457,-122.58 0,0 299.069,-80.26 375.979,-199.72 0,0 51.08,-80.43 36.98,-157.38 0,0 1.36,2.59 3.44,7.31 2.91,6.58 3.17,14.63 3.55,21.7 0.72,13.38 0.83,26.89 0.92,40.29 0.06,9.22 -0.55,18.43 -0.75,27.65 -0.23,9.75 -0.75,19.53 -1.66,29.26 -1.85,19.63 -5.32,39.09 -11.2,57.93 -19.04,61.06 -63.23,105.43 -118.85,135.05 -10.91,5.8 -22.12,11.12 -33.53,16.11 z"
         style="fill:none;stroke:#10141c;stroke-width:10;stroke-linecap:butt;stroke-linejoin:miter;stroke-miterlimit:10;stroke-dasharray:none;stroke-opacity:1"
         id="path56" /><path
         d="m 767.363,1170.83 c -24.234,14.69 -184.871,116.07 -262.761,187.57 24.003,-37.86 159.871,-239.29 365.652,-311.99 0,0 115.949,-48.121 264.276,-42.05 0,0 10.31,1.51 26.21,2.26 44.44,2.11 132.66,-1.64 162.57,-60.53 0,0 1.16,-1 2.88,5.09 -8.83,41.172 -25.68,75.97 -47.64,92.4 -42.66,31.91 -106.12,19.62 -178.3,26.03 -112.895,10.03 -245.492,45.6 -332.887,101.22"
         style="fill:#10141c;fill-opacity:1;fill-rule:nonzero;stroke:none"
         id="path58" /><path
         d="m 767.363,1170.83 c -24.234,14.69 -184.871,116.07 -262.761,187.57 24.003,-37.86 159.871,-239.29 365.652,-311.99 0,0 115.949,-48.121 264.276,-42.05 0,0 10.31,1.51 26.21,2.26 44.44,2.11 132.66,-1.64 162.57,-60.53 0,0 1.16,-1 2.88,5.09 -8.83,41.172 -25.68,75.97 -47.64,92.4 -42.66,31.91 -106.12,19.62 -178.3,26.03 -112.895,10.03 -245.492,45.6 -332.887,101.22"
         style="fill:none;stroke:#10141c;stroke-width:10;stroke-linecap:butt;stroke-linejoin:miter;stroke-miterlimit:10;stroke-dasharray:none;stroke-opacity:1"
         id="path60" /><path
         d="m 551.086,256.141 c -128.582,-80.43 -272.57,-20.621 -372.258,103.55 -7.098,4.641 -10.769,7.957 -10.769,7.957 32.277,-51 69.238,-88.718 69.238,-88.718 132.812,-147.52 285.047,-107.168 285.047,-107.168 105.625,29.777 285.051,240.91 285.051,240.91 123.691,147.019 197.045,152.289 197.045,152.289 l -2.5,0.309 C 821.289,517.629 708.41,334.68 551.086,256.141"
         style="fill:#10141c;fill-opacity:1;fill-rule:nonzero;stroke:none"
         id="path62" /><path
         d="m 551.086,256.141 c -128.582,-80.43 -272.57,-20.621 -372.258,103.55 -7.098,4.641 -10.769,7.957 -10.769,7.957 32.277,-51 69.238,-88.718 69.238,-88.718 132.812,-147.52 285.047,-107.168 285.047,-107.168 105.625,29.777 285.051,240.91 285.051,240.91 123.691,147.019 197.045,152.289 197.045,152.289 l -2.5,0.309 C 821.289,517.629 708.41,334.68 551.086,256.141"
         style="fill:none;stroke:#10141c;stroke-width:10;stroke-linecap:butt;stroke-linejoin:miter;stroke-miterlimit:10;stroke-dasharray:none;stroke-opacity:1"
         id="path64" /><path
         d="M 1149.78,555.609 C 1108.54,517.77 1091.1,464.941 1073.85,413.32 1043.41,322.352 1016.72,212.551 958.02,134.941 918.918,83.25 864.043,53.7617 800.82,42.6211 765.859,36.4883 725.605,31.082 690.156,33.7891 652.98,36.5195 616.348,44.3516 579.98,52.4688 615.461,37.8203 648.754,25.2813 687.297,18.9297 737.773,10.75 804.387,-1.98047 855.422,9.71875 955.566,32.4219 1018.61,98.2891 1053.43,193.621 c 9.95,27.07 13.5,55.399 19.28,83.5 12.17,58.559 31.1,116.328 54.08,171.449 17.88,42.84 41.9,98.602 85.17,121.559 0,0 -5.79,0.91 -15.92,1.019 -19.22,-1.359 -35.83,-5.296 -46.26,-15.539"
         style="fill:#10141c;fill-opacity:1;fill-rule:nonzero;stroke:none"
         id="path66" /><path
         d="M 1149.78,555.609 C 1108.54,517.77 1091.1,464.941 1073.85,413.32 1043.41,322.352 1016.72,212.551 958.02,134.941 918.918,83.25 864.043,53.7617 800.82,42.6211 765.859,36.4883 725.605,31.082 690.156,33.7891 652.98,36.5195 616.348,44.3516 579.98,52.4688 615.461,37.8203 648.754,25.2813 687.297,18.9297 737.773,10.75 804.387,-1.98047 855.422,9.71875 955.566,32.4219 1018.61,98.2891 1053.43,193.621 c 9.95,27.07 13.5,55.399 19.28,83.5 12.17,58.559 31.1,116.328 54.08,171.449 17.88,42.84 41.9,98.602 85.17,121.559 0,0 -5.79,0.91 -15.92,1.019 -19.22,-1.359 -35.83,-5.296 -46.26,-15.539"
         style="fill:none;stroke:#10141c;stroke-width:10;stroke-linecap:butt;stroke-linejoin:miter;stroke-miterlimit:10;stroke-dasharray:none;stroke-opacity:1"
         id="path68" /><path
         d="m 3466.63,1725.62 c -1.41,-2.23 -3.1,-4.41 -4.79,-6.76 l -0.69,-0.9 c -6.41,-8.57 -14.32,-17.36 -23.08,-26.65 -56.37,-114.96 -111.27,-196.31 -200.76,-280.2 -82.89,-77.7 -187.53,-133.49 -296.91,-166.61 -34.79,-10.6 -70.28,-18.6 -106.05,-25.46 -90.3,-17.11 -178.62,-20.16 -269.91,-11.23 -95.17,9.31 -196.35,13.92 -290.24,-8.11 -72.62,-17.05 -130.17,-63.01 -185.98,-110.44 -16.56,-14.08 -36.02,-34.69 -50.84,-50.64 68.24,41.31 146.31,76.6 224.39,93.66 41.33,9.02 92.2,12.88 127.09,10.16 93.55,-7.22 186.17,-16.69 280.13,-15.2 6.36,0.16 12.66,0.3 18.94,0.37 292.94,21.24 476.82,153.39 476.82,153.39 306.43,193.52 301.88,444.62 301.88,444.62"
         style="fill:#10141c;fill-opacity:1;fill-rule:nonzero;stroke:none"
         id="path70" /><path
         d="m 3466.63,1725.62 c -1.41,-2.23 -3.1,-4.41 -4.79,-6.76 l -0.69,-0.9 c -6.41,-8.57 -14.32,-17.36 -23.08,-26.65 -56.37,-114.96 -111.27,-196.31 -200.76,-280.2 -82.89,-77.7 -187.53,-133.49 -296.91,-166.61 -34.79,-10.6 -70.28,-18.6 -106.05,-25.46 -90.3,-17.11 -178.62,-20.16 -269.91,-11.23 -95.17,9.31 -196.35,13.92 -290.24,-8.11 -72.62,-17.05 -130.17,-63.01 -185.98,-110.44 -16.56,-14.08 -36.02,-34.69 -50.84,-50.64 68.24,41.31 146.31,76.6 224.39,93.66 41.33,9.02 92.2,12.88 127.09,10.16 93.55,-7.22 186.17,-16.69 280.13,-15.2 6.36,0.16 12.66,0.3 18.94,0.37 292.94,21.24 476.82,153.39 476.82,153.39 306.43,193.52 301.88,444.62 301.88,444.62"
         style="fill:none;stroke:#10141c;stroke-width:10;stroke-linecap:butt;stroke-linejoin:miter;stroke-miterlimit:10;stroke-dasharray:none;stroke-opacity:1"
         id="path72" /><path
         d="m 2691.92,826.16 c 209.94,67.059 410.33,160.129 571.55,328.46 -8.49,-12.31 -233.17,-342.671 -678.07,-424.518 0,0 -163.62,-24.911 -312.31,33.609 -11.68,4.598 -23.05,9.93 -34.21,15.641 -3.08,1.578 -6.13,3.187 -9.21,4.757 -48.17,24.582 -200.53,93.27 -342.73,60.231 0,0 5.24,4.441 14.72,11.488 117.58,35.723 221.04,41.891 324.3,13.41 129.42,-35.648 262.33,-108.148 465.96,-43.078"
         style="fill:#10141c;fill-opacity:1;fill-rule:nonzero;stroke:none"
         id="path74" /><path
         d="m 2691.92,826.16 c 209.94,67.059 410.33,160.129 571.55,328.46 -8.49,-12.31 -233.17,-342.671 -678.07,-424.518 0,0 -163.62,-24.911 -312.31,33.609 -11.68,4.598 -23.05,9.93 -34.21,15.641 -3.08,1.578 -6.13,3.187 -9.21,4.757 -48.17,24.582 -200.53,93.27 -342.73,60.231 0,0 5.24,4.441 14.72,11.488 117.58,35.723 221.04,41.891 324.3,13.41 129.42,-35.648 262.33,-108.148 465.96,-43.078 z"
         style="fill:none;stroke:#10141c;stroke-width:10;stroke-linecap:butt;stroke-linejoin:miter;stroke-miterlimit:10;stroke-dasharray:none;stroke-opacity:1"
         id="path76" /></g></g></svg>
